<svg width="855" height="319" viewBox="0 0 855 319" fill="none" xmlns="http://www.w3.org/2000/svg">
<g opacity="0.1">
<g clip-path="url(#clip0)">
<circle cx="7.5" cy="7.5" r="7.5" fill="white"/>
<circle cx="42.5" cy="7.5" r="7.5" fill="white"/>
<circle cx="77.5" cy="7.5" r="7.5" fill="white"/>
<circle cx="112.5" cy="7.5" r="7.5" fill="white"/>
<circle cx="147.5" cy="7.5" r="7.5" fill="white"/>
<circle cx="182.5" cy="7.5" r="7.5" fill="white"/>
<circle cx="217.5" cy="7.5" r="7.5" fill="white"/>
<circle cx="252.5" cy="7.5" r="7.5" fill="white"/>
<circle cx="287.5" cy="7.5" r="7.5" fill="white"/>
<circle cx="322.5" cy="7.5" r="7.5" fill="white"/>
<circle cx="357.5" cy="7.5" r="7.5" fill="white"/>
<circle cx="392.5" cy="7.5" r="7.5" fill="white"/>
<circle cx="427.5" cy="7.5" r="7.5" fill="white"/>
<circle cx="462.5" cy="7.5" r="7.5" fill="white"/>
<circle cx="497.5" cy="7.5" r="7.5" fill="white"/>
<circle cx="532.5" cy="7.5" r="7.5" fill="white"/>
<circle cx="567.5" cy="7.5" r="7.5" fill="white"/>
<circle cx="602.5" cy="7.5" r="7.5" fill="white"/>
<circle cx="637.5" cy="7.5" r="7.5" fill="white"/>
<circle cx="672.5" cy="7.5" r="7.5" fill="white"/>
<circle cx="707.5" cy="7.5" r="7.5" fill="white"/>
<circle cx="742.5" cy="7.5" r="7.5" fill="white"/>
<circle cx="777.5" cy="7.5" r="7.5" fill="white"/>
<circle cx="812.5" cy="7.5" r="7.5" fill="white"/>
<circle cx="847.5" cy="7.5" r="7.5" fill="white"/>
<circle cx="7.5" cy="42.5" r="7.5" fill="white"/>
<circle cx="42.5" cy="42.5" r="7.5" fill="white"/>
<circle cx="77.5" cy="42.5" r="7.5" fill="white"/>
<circle cx="112.5" cy="42.5" r="7.5" fill="white"/>
<circle cx="147.5" cy="42.5" r="7.5" fill="white"/>
<circle cx="182.5" cy="42.5" r="7.5" fill="white"/>
<circle cx="217.5" cy="42.5" r="7.5" fill="white"/>
<circle cx="252.5" cy="42.5" r="7.5" fill="white"/>
<circle cx="287.5" cy="42.5" r="7.5" fill="white"/>
<circle cx="322.5" cy="42.5" r="7.5" fill="white"/>
<circle cx="357.5" cy="42.5" r="7.5" fill="white"/>
<circle cx="392.5" cy="42.5" r="7.5" fill="white"/>
<circle cx="427.5" cy="42.5" r="7.5" fill="white"/>
<circle cx="462.5" cy="42.5" r="7.5" fill="white"/>
<circle cx="497.5" cy="42.5" r="7.5" fill="white"/>
<circle cx="532.5" cy="42.5" r="7.5" fill="white"/>
<circle cx="567.5" cy="42.5" r="7.5" fill="white"/>
<circle cx="602.5" cy="42.5" r="7.5" fill="white"/>
<circle cx="637.5" cy="42.5" r="7.5" fill="white"/>
<circle cx="672.5" cy="42.5" r="7.5" fill="white"/>
<circle cx="707.5" cy="42.5" r="7.5" fill="white"/>
<circle cx="742.5" cy="42.5" r="7.5" fill="white"/>
<circle cx="777.5" cy="42.5" r="7.5" fill="white"/>
<circle cx="812.5" cy="42.5" r="7.5" fill="white"/>
<circle cx="847.5" cy="42.5" r="7.5" fill="white"/>
<circle cx="7.5" cy="77.5" r="7.5" fill="white"/>
<circle cx="42.5" cy="77.5" r="7.5" fill="white"/>
<circle cx="77.5" cy="77.5" r="7.5" fill="white"/>
<circle cx="112.5" cy="77.5" r="7.5" fill="white"/>
<circle cx="147.5" cy="77.5" r="7.5" fill="white"/>
<circle cx="182.5" cy="77.5" r="7.5" fill="white"/>
<circle cx="217.5" cy="77.5" r="7.5" fill="white"/>
<circle cx="252.5" cy="77.5" r="7.5" fill="white"/>
<circle cx="287.5" cy="77.5" r="7.5" fill="white"/>
<circle cx="322.5" cy="77.5" r="7.5" fill="white"/>
<circle cx="357.5" cy="77.5" r="7.5" fill="white"/>
<circle cx="392.5" cy="77.5" r="7.5" fill="white"/>
<circle cx="427.5" cy="77.5" r="7.5" fill="white"/>
<circle cx="462.5" cy="77.5" r="7.5" fill="white"/>
<circle cx="497.5" cy="77.5" r="7.5" fill="white"/>
<circle cx="532.5" cy="77.5" r="7.5" fill="white"/>
<circle cx="567.5" cy="77.5" r="7.5" fill="white"/>
<circle cx="602.5" cy="77.5" r="7.5" fill="white"/>
<circle cx="637.5" cy="77.5" r="7.5" fill="white"/>
<circle cx="672.5" cy="77.5" r="7.5" fill="white"/>
<circle cx="707.5" cy="77.5" r="7.5" fill="white"/>
<circle cx="742.5" cy="77.5" r="7.5" fill="white"/>
<circle cx="777.5" cy="77.5" r="7.5" fill="white"/>
<circle cx="812.5" cy="77.5" r="7.5" fill="white"/>
<circle cx="847.5" cy="77.5" r="7.5" fill="white"/>
<circle cx="7.5" cy="112.5" r="7.5" fill="white"/>
<circle cx="42.5" cy="112.5" r="7.5" fill="white"/>
<circle cx="77.5" cy="112.5" r="7.5" fill="white"/>
<circle cx="112.5" cy="112.5" r="7.5" fill="white"/>
<circle cx="147.5" cy="112.5" r="7.5" fill="white"/>
<circle cx="182.5" cy="112.5" r="7.5" fill="white"/>
<circle cx="217.5" cy="112.5" r="7.5" fill="white"/>
<circle cx="252.5" cy="112.5" r="7.5" fill="white"/>
<circle cx="287.5" cy="112.5" r="7.5" fill="white"/>
<circle cx="322.5" cy="112.5" r="7.5" fill="white"/>
<circle cx="357.5" cy="112.5" r="7.5" fill="white"/>
<circle cx="392.5" cy="112.5" r="7.5" fill="white"/>
<circle cx="427.5" cy="112.5" r="7.5" fill="white"/>
<circle cx="462.5" cy="112.5" r="7.5" fill="white"/>
<circle cx="497.5" cy="112.5" r="7.5" fill="white"/>
<circle cx="532.5" cy="112.5" r="7.5" fill="white"/>
<circle cx="567.5" cy="112.5" r="7.5" fill="white"/>
<circle cx="602.5" cy="112.5" r="7.5" fill="white"/>
<circle cx="637.5" cy="112.5" r="7.5" fill="white"/>
<circle cx="672.5" cy="112.5" r="7.5" fill="white"/>
<circle cx="707.5" cy="112.5" r="7.5" fill="white"/>
<circle cx="742.5" cy="112.5" r="7.5" fill="white"/>
<circle cx="777.5" cy="112.5" r="7.5" fill="white"/>
<circle cx="812.5" cy="112.5" r="7.5" fill="white"/>
<circle cx="847.5" cy="112.5" r="7.5" fill="white"/>
<circle cx="7.5" cy="147.5" r="7.5" fill="white"/>
<circle cx="42.5" cy="147.5" r="7.5" fill="white"/>
<circle cx="77.5" cy="147.5" r="7.5" fill="white"/>
<circle cx="112.5" cy="147.5" r="7.5" fill="white"/>
<circle cx="147.5" cy="147.5" r="7.5" fill="white"/>
<circle cx="182.5" cy="147.5" r="7.5" fill="white"/>
<circle cx="217.5" cy="147.5" r="7.5" fill="white"/>
<circle cx="252.5" cy="147.5" r="7.5" fill="white"/>
<circle cx="287.5" cy="147.5" r="7.5" fill="white"/>
<circle cx="322.5" cy="147.5" r="7.5" fill="white"/>
<circle cx="357.5" cy="147.5" r="7.5" fill="white"/>
<circle cx="392.5" cy="147.5" r="7.5" fill="white"/>
<circle cx="427.5" cy="147.5" r="7.5" fill="white"/>
<circle cx="462.5" cy="147.5" r="7.5" fill="white"/>
<circle cx="497.5" cy="147.5" r="7.5" fill="white"/>
<circle cx="532.5" cy="147.5" r="7.5" fill="white"/>
<circle cx="567.5" cy="147.5" r="7.5" fill="white"/>
<circle cx="602.5" cy="147.5" r="7.5" fill="white"/>
<circle cx="637.5" cy="147.5" r="7.5" fill="white"/>
<circle cx="672.5" cy="147.5" r="7.5" fill="white"/>
<circle cx="707.5" cy="147.5" r="7.5" fill="white"/>
<circle cx="742.5" cy="147.5" r="7.5" fill="white"/>
<circle cx="777.5" cy="147.5" r="7.5" fill="white"/>
<circle cx="812.5" cy="147.5" r="7.5" fill="white"/>
<circle cx="847.5" cy="147.5" r="7.5" fill="white"/>
<circle cx="7.5" cy="182.5" r="7.5" fill="white"/>
<circle cx="42.5" cy="182.5" r="7.5" fill="white"/>
<circle cx="77.5" cy="182.5" r="7.5" fill="white"/>
<circle cx="112.5" cy="182.5" r="7.5" fill="white"/>
<circle cx="147.5" cy="182.5" r="7.5" fill="white"/>
<circle cx="182.5" cy="182.5" r="7.5" fill="white"/>
<circle cx="217.5" cy="182.5" r="7.5" fill="white"/>
<circle cx="252.5" cy="182.5" r="7.5" fill="white"/>
<circle cx="287.5" cy="182.5" r="7.5" fill="white"/>
<circle cx="322.5" cy="182.5" r="7.5" fill="white"/>
<circle cx="357.5" cy="182.5" r="7.5" fill="white"/>
<circle cx="392.5" cy="182.5" r="7.5" fill="white"/>
<circle cx="427.5" cy="182.5" r="7.5" fill="white"/>
<circle cx="462.5" cy="182.5" r="7.5" fill="white"/>
<circle cx="497.5" cy="182.5" r="7.5" fill="white"/>
<circle cx="532.5" cy="182.5" r="7.5" fill="white"/>
<circle cx="567.5" cy="182.5" r="7.5" fill="white"/>
<circle cx="602.5" cy="182.5" r="7.5" fill="white"/>
<circle cx="637.5" cy="182.5" r="7.5" fill="white"/>
<circle cx="672.5" cy="182.5" r="7.5" fill="white"/>
<circle cx="707.5" cy="182.5" r="7.5" fill="white"/>
<circle cx="742.5" cy="182.5" r="7.5" fill="white"/>
<circle cx="777.5" cy="182.5" r="7.5" fill="white"/>
<circle cx="812.5" cy="182.5" r="7.5" fill="white"/>
<circle cx="847.5" cy="182.5" r="7.5" fill="white"/>
<circle cx="7.5" cy="217.5" r="7.5" fill="white"/>
<circle cx="42.5" cy="217.5" r="7.5" fill="white"/>
<circle cx="77.5" cy="217.5" r="7.5" fill="white"/>
<circle cx="112.5" cy="217.5" r="7.5" fill="white"/>
<circle cx="147.5" cy="217.5" r="7.5" fill="white"/>
<circle cx="182.5" cy="217.5" r="7.5" fill="white"/>
<circle cx="217.5" cy="217.5" r="7.5" fill="white"/>
<circle cx="252.5" cy="217.5" r="7.5" fill="white"/>
<circle cx="287.5" cy="217.5" r="7.5" fill="white"/>
<circle cx="322.5" cy="217.5" r="7.5" fill="white"/>
<circle cx="357.5" cy="217.5" r="7.5" fill="white"/>
<circle cx="392.5" cy="217.5" r="7.5" fill="white"/>
<circle cx="427.5" cy="217.5" r="7.5" fill="white"/>
<circle cx="462.5" cy="217.5" r="7.5" fill="white"/>
<circle cx="497.5" cy="217.5" r="7.5" fill="white"/>
<circle cx="532.5" cy="217.5" r="7.5" fill="white"/>
<circle cx="567.5" cy="217.5" r="7.5" fill="white"/>
<circle cx="602.5" cy="217.5" r="7.5" fill="white"/>
<circle cx="637.5" cy="217.5" r="7.5" fill="white"/>
<circle cx="672.5" cy="217.5" r="7.5" fill="white"/>
<circle cx="707.5" cy="217.5" r="7.5" fill="white"/>
<circle cx="742.5" cy="217.5" r="7.5" fill="white"/>
<circle cx="777.5" cy="217.5" r="7.5" fill="white"/>
<circle cx="812.5" cy="217.5" r="7.5" fill="white"/>
<circle cx="847.5" cy="217.5" r="7.5" fill="white"/>
<circle cx="7.5" cy="252.5" r="7.5" fill="white"/>
<circle cx="42.5" cy="252.5" r="7.5" fill="white"/>
<circle cx="77.5" cy="252.5" r="7.5" fill="white"/>
<circle cx="112.5" cy="252.5" r="7.5" fill="white"/>
<circle cx="147.5" cy="252.5" r="7.5" fill="white"/>
<circle cx="182.5" cy="252.5" r="7.5" fill="white"/>
<circle cx="217.5" cy="252.5" r="7.5" fill="white"/>
<circle cx="252.5" cy="252.5" r="7.5" fill="white"/>
<circle cx="287.5" cy="252.5" r="7.5" fill="white"/>
<circle cx="322.5" cy="252.5" r="7.5" fill="white"/>
<circle cx="357.5" cy="252.5" r="7.5" fill="white"/>
<circle cx="392.5" cy="252.5" r="7.5" fill="white"/>
<circle cx="427.5" cy="252.5" r="7.5" fill="white"/>
<circle cx="462.5" cy="252.5" r="7.5" fill="white"/>
<circle cx="497.5" cy="252.5" r="7.5" fill="white"/>
<circle cx="532.5" cy="252.5" r="7.5" fill="white"/>
<circle cx="567.5" cy="252.5" r="7.5" fill="white"/>
<circle cx="602.5" cy="252.5" r="7.5" fill="white"/>
<circle cx="637.5" cy="252.5" r="7.5" fill="white"/>
<circle cx="672.5" cy="252.5" r="7.5" fill="white"/>
<circle cx="707.5" cy="252.5" r="7.5" fill="white"/>
<circle cx="742.5" cy="252.5" r="7.5" fill="white"/>
<circle cx="777.5" cy="252.5" r="7.5" fill="white"/>
<circle cx="812.5" cy="252.5" r="7.5" fill="white"/>
<circle cx="847.5" cy="252.5" r="7.5" fill="white"/>
<circle cx="7.5" cy="287.5" r="7.5" fill="white"/>
<circle cx="42.5" cy="287.5" r="7.5" fill="white"/>
<circle cx="77.5" cy="287.5" r="7.5" fill="white"/>
<circle cx="112.5" cy="287.5" r="7.5" fill="white"/>
<circle cx="147.5" cy="287.5" r="7.5" fill="white"/>
<circle cx="182.5" cy="287.5" r="7.5" fill="white"/>
<circle cx="217.5" cy="287.5" r="7.5" fill="white"/>
<circle cx="252.5" cy="287.5" r="7.5" fill="white"/>
<circle cx="287.5" cy="287.5" r="7.5" fill="white"/>
<circle cx="322.5" cy="287.5" r="7.5" fill="white"/>
<circle cx="357.5" cy="287.5" r="7.5" fill="white"/>
<circle cx="392.5" cy="287.5" r="7.5" fill="white"/>
<circle cx="427.5" cy="287.5" r="7.5" fill="white"/>
<circle cx="462.5" cy="287.5" r="7.5" fill="white"/>
<circle cx="497.5" cy="287.5" r="7.5" fill="white"/>
<circle cx="532.5" cy="287.5" r="7.5" fill="white"/>
<circle cx="567.5" cy="287.5" r="7.5" fill="white"/>
<circle cx="602.5" cy="287.5" r="7.5" fill="white"/>
<circle cx="637.5" cy="287.5" r="7.5" fill="white"/>
<circle cx="672.5" cy="287.5" r="7.5" fill="white"/>
<circle cx="707.5" cy="287.5" r="7.5" fill="white"/>
<circle cx="742.5" cy="287.5" r="7.5" fill="white"/>
<circle cx="777.5" cy="287.5" r="7.5" fill="white"/>
<circle cx="812.5" cy="287.5" r="7.5" fill="white"/>
<circle cx="847.5" cy="287.5" r="7.5" fill="white"/>
<circle cx="7.5" cy="322.5" r="7.5" fill="white"/>
<circle cx="42.5" cy="322.5" r="7.5" fill="white"/>
<circle cx="77.5" cy="322.5" r="7.5" fill="white"/>
<circle cx="112.5" cy="322.5" r="7.5" fill="white"/>
<circle cx="147.5" cy="322.5" r="7.5" fill="white"/>
<circle cx="182.5" cy="322.5" r="7.5" fill="white"/>
<circle cx="217.5" cy="322.5" r="7.5" fill="white"/>
<circle cx="252.5" cy="322.5" r="7.5" fill="white"/>
<circle cx="287.5" cy="322.5" r="7.5" fill="white"/>
<circle cx="322.5" cy="322.5" r="7.5" fill="white"/>
<circle cx="357.5" cy="322.5" r="7.5" fill="white"/>
<circle cx="392.5" cy="322.5" r="7.5" fill="white"/>
<circle cx="427.5" cy="322.5" r="7.5" fill="white"/>
<circle cx="462.5" cy="322.5" r="7.5" fill="white"/>
<circle cx="497.5" cy="322.5" r="7.5" fill="white"/>
<circle cx="532.5" cy="322.5" r="7.5" fill="white"/>
<circle cx="567.5" cy="322.5" r="7.5" fill="white"/>
<circle cx="602.5" cy="322.5" r="7.5" fill="white"/>
<circle cx="637.5" cy="322.5" r="7.5" fill="white"/>
<circle cx="672.5" cy="322.5" r="7.5" fill="white"/>
<circle cx="707.5" cy="322.5" r="7.5" fill="white"/>
<circle cx="742.5" cy="322.5" r="7.5" fill="white"/>
<circle cx="777.5" cy="322.5" r="7.5" fill="white"/>
<circle cx="812.5" cy="322.5" r="7.5" fill="white"/>
<circle cx="847.5" cy="322.5" r="7.5" fill="white"/>
</g>
</g>
<defs>
<clipPath id="clip0">
<rect width="855" height="319" fill="white"/>
</clipPath>
</defs>
</svg>
